<svg width="117" height="37" viewBox="0 0 117 37" fill="none" xmlns="http://www.w3.org/2000/svg">
<path d="M116.464 12.2192C114.637 8.09665 113.563 -0.428231 104.075 0.0167673C96.1471 0.388606 63.373 14.755 58.77 16.5194C100.783 2.84888 102.194 1.08711 116.464 12.2192Z" fill="white"/>
<path d="M12.2028 19.3126V36.7407H10.4485V27.5598C10.4485 25.779 10.5001 24.0586 10.6033 22.3988L7.06886 32.0984H5.13395L1.54793 22.3988C1.66832 24.0068 1.72852 25.7185 1.72852 27.5339V36.7407H0V19.3126H2.1671L6.08851 30.2311L10.0099 19.3126H12.2028Z" fill="white"/>
<path d="M23.021 36.7407L21.9632 31.865H17.3194L16.2617 36.7407H14.43L18.3514 19.3126H20.9313L24.8527 36.7407H23.021ZM17.6548 30.257H21.602L19.6155 21.1021L17.6548 30.257Z" fill="white"/>
<path d="M28.967 35.1327H34.2299V36.7407H27.1353V29.5049L25.7163 30.257V28.7787L27.1353 28.0526V19.3126H28.967V27.093L31.4695 25.7963V27.2486L28.967 28.5453V35.1327Z" fill="white"/>
<path d="M42.7592 23.2028C42.7592 21.5603 41.9079 20.739 40.2052 20.739C38.5196 20.739 37.6769 21.5603 37.6769 23.2028V32.8505C37.6769 34.5103 38.5196 35.3402 40.2052 35.3402C41.9079 35.3402 42.7592 34.5103 42.7592 32.8505V23.2028ZM35.8452 23.1769C35.8452 21.9493 36.2149 20.9551 36.9545 20.1944C37.6941 19.4336 38.7776 19.0533 40.2052 19.0533C41.6499 19.0533 42.742 19.4336 43.4816 20.1944C44.2212 20.9551 44.591 21.9493 44.591 23.1769V32.9023C44.591 34.1299 44.2212 35.1241 43.4816 35.8848C42.742 36.6283 41.6499 37 40.2052 37C38.7604 37 37.6683 36.6283 36.9287 35.8848C36.2064 35.1241 35.8452 34.1299 35.8452 32.9023V23.1769Z" fill="white"/>
<path d="M54.4469 23.3325C54.4469 21.7418 53.6299 20.9465 51.996 20.9465H49.7257V29.1159H51.996C53.6299 29.1159 54.4469 28.3292 54.4469 26.7558V23.3325ZM47.894 19.3126H52.0992C53.4579 19.3126 54.4899 19.6671 55.195 20.3759C55.9174 21.0848 56.2786 22.0357 56.2786 23.2287V26.8336C56.2786 28.0439 55.926 29.0035 55.2209 29.7124C54.5157 30.404 53.4751 30.7498 52.0992 30.7498H49.7257V36.7407H47.894V19.3126Z" fill="white"/>
<path d="M65.8874 23.2028C65.8874 21.5603 65.0361 20.739 63.3334 20.739C61.6478 20.739 60.8051 21.5603 60.8051 23.2028V32.8505C60.8051 34.5103 61.6478 35.3402 63.3334 35.3402C65.0361 35.3402 65.8874 34.5103 65.8874 32.8505V23.2028ZM58.9734 23.1769C58.9734 21.9493 59.3431 20.9551 60.0827 20.1944C60.8223 19.4336 61.9058 19.0533 63.3334 19.0533C64.7781 19.0533 65.8702 19.4336 66.6098 20.1944C67.3494 20.9551 67.7191 21.9493 67.7191 23.1769V32.9023C67.7191 34.1299 67.3494 35.1241 66.6098 35.8848C65.8702 36.6283 64.7781 37 63.3334 37C61.8886 37 60.7965 36.6283 60.0569 35.8848C59.3345 35.1241 58.9734 34.1299 58.9734 32.9023V23.1769Z" fill="white"/>
<path d="M71.0222 19.3126H72.8539V35.1327H78.1169V36.7407H71.0222V19.3126Z" fill="white"/>
<path d="M78.9587 22.8397C78.9587 21.6986 79.3371 20.8082 80.0939 20.1685C80.8506 19.5114 81.9084 19.1829 83.2671 19.1829C84.6431 19.1829 85.804 19.3299 86.75 19.6238V21.3874C85.8556 21.0589 84.7635 20.8946 83.4735 20.8946C81.702 20.8946 80.8162 21.5689 80.8162 22.9175V24.1624C80.8162 24.7675 80.928 25.243 81.1516 25.5888C81.3924 25.9346 81.788 26.2631 82.3384 26.5743L85.331 28.26C86.7242 29.0208 87.4207 30.1706 87.4207 31.7093V33.1098C87.4207 34.3028 87.0165 35.2278 86.2082 35.8848C85.3998 36.5418 84.2303 36.8703 82.6996 36.8703C81.186 36.8703 79.9821 36.6974 79.0877 36.3516V34.5881C80.1025 34.9685 81.2548 35.1586 82.5448 35.1586C84.5743 35.1586 85.589 34.4411 85.589 33.0061V31.9168C85.589 31.3463 85.4858 30.8967 85.2794 30.5682C85.073 30.2397 84.7033 29.9285 84.1701 29.6346L81.2032 28.0007C79.7069 27.1881 78.9587 25.9778 78.9587 24.3699V22.8397Z" fill="white"/>
<path d="M90.0185 19.3126H91.8503V36.7407H90.0185V19.3126ZM96.7778 19.3126H98.7643L95.1267 28.0007L98.9707 36.7407H96.9326L93.166 28.0526L96.7778 19.3126Z" fill="white"/>
<path d="M101.18 19.3126H103.011V36.7407H101.18V19.3126Z" fill="white"/>
<path d="M106.571 19.3126H114.079V20.9465H108.403V27.1449H113.356V28.7787H108.403V35.1068H114.079V36.7407H106.571V19.3126Z" fill="white"/>
<path d="M7.93934e-06 15.1285V7.63989C0.300994 7.53904 0.687258 7.43818 1.1588 7.33732C1.64038 7.23647 2.20724 7.18604 2.85937 7.18604C3.6319 7.18604 4.23387 7.33228 4.66528 7.62477C5.10673 7.91725 5.41273 8.33076 5.58329 8.8653C5.76388 9.39984 5.85418 10.0403 5.85418 10.7866V15.1285H5.13181V11.0741C5.13181 10.3176 5.0666 9.70241 4.93617 9.22839C4.80574 8.75436 4.56496 8.40641 4.21381 8.18452C3.87269 7.96264 3.39111 7.85169 2.76908 7.85169C2.27747 7.85169 1.84104 7.88699 1.45979 7.95759C1.08857 8.02819 0.842768 8.08871 0.722373 8.13914V15.1285H7.93934e-06Z" fill="white"/>
<path d="M10.3582 15.2495C9.73615 15.2495 9.19939 15.1638 8.74791 14.9923C8.30647 14.8209 7.97037 14.5587 7.73961 14.2057C7.50886 13.8426 7.39348 13.3887 7.39348 12.8441C7.39348 12.3096 7.51889 11.8708 7.76971 11.5279C8.02053 11.1749 8.38172 10.9177 8.85326 10.7564C9.33484 10.5849 9.91173 10.4992 10.5839 10.4992C10.8749 10.4992 11.1859 10.5294 11.517 10.59C11.8481 10.6404 12.1039 10.6959 12.2845 10.7564V10.2117C12.2845 9.69737 12.2193 9.26369 12.0889 8.91069C11.9685 8.5476 11.7578 8.27529 11.4568 8.09375C11.1558 7.90212 10.7294 7.80631 10.1776 7.80631C9.78631 7.80631 9.43015 7.84161 9.1091 7.91221C8.78805 7.98281 8.53722 8.06349 8.35663 8.15426L8.25129 7.50374C8.48204 7.40288 8.76798 7.3222 9.1091 7.26168C9.45021 7.19108 9.83648 7.15578 10.2679 7.15578C10.92 7.15578 11.4468 7.27177 11.8481 7.50374C12.2494 7.73571 12.5403 8.06349 12.7209 8.48709C12.9115 8.9006 13.0069 9.39984 13.0069 9.98481V14.9016C12.6858 14.9923 12.2895 15.073 11.818 15.1436C11.3464 15.2142 10.8598 15.2495 10.3582 15.2495ZM10.4635 14.599C10.7846 14.599 11.1006 14.5839 11.4116 14.5536C11.7327 14.5234 12.0236 14.4729 12.2845 14.4023V11.3766C12.0939 11.2959 11.8581 11.2304 11.5772 11.18C11.2963 11.1295 10.9702 11.1043 10.599 11.1043C10.1074 11.1043 9.67595 11.1648 9.30474 11.2859C8.94356 11.3968 8.65762 11.5783 8.44693 11.8305C8.24627 12.0826 8.14594 12.4155 8.14594 12.829C8.14594 13.4543 8.33657 13.9081 8.71782 14.1905C9.1091 14.4629 9.691 14.599 10.4635 14.599Z" fill="white"/>
<path d="M22.1037 15.2495C21.3312 15.2495 20.674 15.0932 20.1322 14.7805C19.6005 14.4578 19.1942 13.9989 18.9132 13.4039C18.6423 12.8088 18.5069 12.0978 18.5069 11.2707C18.5069 10.4235 18.6474 9.69737 18.9283 9.09223C19.2192 8.477 19.6256 8.00298 20.1473 7.67015C20.679 7.33732 21.3011 7.17091 22.0134 7.17091C22.4348 7.17091 22.806 7.20621 23.127 7.27681C23.4581 7.33732 23.734 7.42305 23.9547 7.534L23.7591 8.16939C23.5584 8.06853 23.3126 7.98785 23.0217 7.92734C22.7408 7.86682 22.4147 7.83657 22.0435 7.83657C21.1506 7.83657 20.4633 8.13409 19.9817 8.72915C19.5002 9.3242 19.2594 10.1714 19.2594 11.2707C19.2594 11.9666 19.3647 12.5617 19.5754 13.0559C19.7861 13.5501 20.1071 13.9283 20.5386 14.1905C20.97 14.4528 21.5117 14.5839 22.1639 14.5839C22.4849 14.5839 22.811 14.5385 23.1421 14.4477C23.4732 14.3569 23.739 14.2561 23.9397 14.1452L24.0902 14.7805C23.8895 14.9016 23.5986 15.0125 23.2173 15.1134C22.8361 15.2041 22.4649 15.2495 22.1037 15.2495Z" fill="white"/>
<path d="M25.0997 15.1285V14.5839C25.3505 14.0796 25.6665 13.5198 26.0478 12.9046C26.429 12.2793 26.8353 11.654 27.2668 11.0287C27.6982 10.4034 28.1095 9.82344 28.5008 9.2889C28.9021 8.75436 29.2432 8.31059 29.5241 7.95759H25.3254V7.33732H30.4271V7.91221C30.1763 8.20469 29.8552 8.60812 29.464 9.12249C29.0727 9.62677 28.6613 10.1865 28.2299 10.8018C27.7985 11.417 27.3771 12.0473 26.9658 12.6928C26.5544 13.3282 26.2033 13.9334 25.9123 14.5082H30.5475V15.1285H25.0997Z" fill="white"/>
<path d="M34.8867 15.2495C34.2647 15.2495 33.728 15.1638 33.2765 14.9923C32.835 14.8209 32.4989 14.5587 32.2682 14.2057C32.0374 13.8426 31.922 13.3887 31.922 12.8441C31.922 12.3096 32.0475 11.8708 32.2983 11.5279C32.5491 11.1749 32.9103 10.9177 33.3818 10.7564C33.8634 10.5849 34.4403 10.4992 35.1125 10.4992C35.4034 10.4992 35.7145 10.5294 36.0455 10.59C36.3766 10.6404 36.6325 10.6959 36.8131 10.7564V10.2117C36.8131 9.69737 36.7478 9.26369 36.6174 8.91069C36.497 8.5476 36.2863 8.27529 35.9853 8.09375C35.6844 7.90212 35.258 7.80631 34.7062 7.80631C34.3149 7.80631 33.9587 7.84161 33.6377 7.91221C33.3166 7.98281 33.0658 8.06349 32.8852 8.15426L32.7799 7.50374C33.0106 7.40288 33.2965 7.3222 33.6377 7.26168C33.9788 7.19108 34.365 7.15578 34.7965 7.15578C35.4486 7.15578 35.9753 7.27177 36.3766 7.50374C36.7779 7.73571 37.0689 8.06349 37.2495 8.48709C37.4401 8.9006 37.5354 9.39984 37.5354 9.98481V14.9016C37.2144 14.9923 36.8181 15.073 36.3465 15.1436C35.875 15.2142 35.3884 15.2495 34.8867 15.2495ZM34.9921 14.599C35.3131 14.599 35.6292 14.5839 35.9402 14.5536C36.2612 14.5234 36.5522 14.4729 36.8131 14.4023V11.3766C36.6224 11.2959 36.3867 11.2304 36.1057 11.18C35.8248 11.1295 35.4988 11.1043 35.1275 11.1043C34.6359 11.1043 34.2045 11.1648 33.8333 11.2859C33.4721 11.3968 33.1862 11.5783 32.9755 11.8305C32.7748 12.0826 32.6745 12.4155 32.6745 12.829C32.6745 13.4543 32.8651 13.9081 33.2464 14.1905C33.6377 14.4629 34.2196 14.599 34.9921 14.599Z" fill="white"/>
<path d="M41.597 15.2647C41.1455 15.2647 40.7141 15.2193 40.3027 15.1285C39.8914 15.0276 39.5804 14.9268 39.3697 14.8259L39.5653 14.1603C39.8161 14.2813 40.1121 14.3872 40.4532 14.478C40.8044 14.5687 41.2157 14.6141 41.6873 14.6141C42.3093 14.6141 42.7959 14.4931 43.147 14.2511C43.5082 14.009 43.6888 13.656 43.6888 13.1921C43.6888 12.9097 43.6286 12.6726 43.5082 12.481C43.3878 12.2894 43.1822 12.1129 42.8912 11.9515C42.6003 11.7901 42.1889 11.6086 41.6572 11.4069C41.1656 11.2052 40.7592 11.0085 40.4382 10.8169C40.1271 10.6253 39.8964 10.4034 39.7459 10.1512C39.5954 9.889 39.5202 9.5713 39.5202 9.19813C39.5202 8.78462 39.6255 8.42658 39.8362 8.12401C40.0469 7.82144 40.3378 7.58442 40.7091 7.41297C41.0903 7.24151 41.5418 7.15578 42.0635 7.15578C42.4849 7.15578 42.8762 7.19613 43.2373 7.27681C43.5985 7.3575 43.8744 7.44827 44.065 7.54912L43.8995 8.18452C43.6888 8.08366 43.428 7.99794 43.1169 7.92734C42.8059 7.84665 42.4498 7.80631 42.0484 7.80631C41.5167 7.80631 41.0853 7.92229 40.7542 8.15426C40.4231 8.38623 40.2576 8.71402 40.2576 9.13762C40.2576 9.39984 40.3128 9.62173 40.4231 9.80327C40.5335 9.98481 40.7241 10.1563 40.995 10.3176C41.2659 10.4689 41.6371 10.6353 42.1086 10.8169C42.6504 11.0287 43.0919 11.2405 43.433 11.4523C43.7741 11.654 44.0249 11.891 44.1854 12.1633C44.356 12.4255 44.4413 12.7533 44.4413 13.1467C44.4413 13.6005 44.3259 13.9888 44.0951 14.3116C43.8744 14.6242 43.5534 14.8612 43.132 15.0226C42.7106 15.184 42.1989 15.2647 41.597 15.2647Z" fill="white"/>
<path d="M43.9442 16.28C45.1529 16.2967 46.3615 16.3125 47.5702 16.3275C58.4482 16.4625 69.3262 16.53 80.2042 16.53C91.0822 16.53 101.96 16.4625 112.838 16.3275C114.047 16.3125 115.256 16.2967 116.464 16.28C115.256 16.2633 114.047 16.2475 112.838 16.2325C101.96 16.0975 91.0822 16.03 80.2042 16.03C69.3262 16.03 58.4482 16.0975 47.5702 16.2325C46.3615 16.2475 45.1529 16.2633 43.9442 16.28Z" fill="white"/>
</svg>
